<?xml version="1.0" encoding="UTF-8" standalone="no"?>
<!-- Created with Inkscape (http://www.inkscape.org/) -->

<svg
   width="1920"
   height="1080"
   viewBox="0 0 508 285.75"
   version="1.1"
   id="svg5"
   xmlns="http://www.w3.org/2000/svg"
   xmlns:svg="http://www.w3.org/2000/svg">
  <defs
     id="defs2" />
  <g
     id="layer1">
    <g
       id="g1458"
       transform="matrix(0.95319914,0,0,0.95319914,34.566289,103.14055)">
      <polygon
         fill="#ffffff"
         points=""
         id="polygon1456" />
    </g>
    <g
       id="g5446">
      <path
         style="fill:#326ce5;fill-opacity:1;stroke:#ffffff;stroke-width:0;stroke-miterlimit:4;stroke-dasharray:none;stroke-opacity:1"
         d="m 253.35533,14.969171 a 12.362556,12.261386 0 0 0 -4.73769,1.198893 l -64.64929,30.890104 a 12.362556,12.261386 0 0 0 -6.689,8.317838 l -15.94941,69.386974 a 12.362556,12.261386 0 0 0 1.67845,9.40098 12.362556,12.261386 0 0 0 0.7028,0.97565 l 44.74766,55.63691 a 12.362556,12.261386 0 0 0 9.66556,4.61368 l 71.75996,-0.0165 a 12.362556,12.261386 0 0 0 9.66556,-4.6054 l 44.73111,-55.64519 a 12.362556,12.261386 0 0 0 2.38952,-10.37662 L 330.69634,55.35947 a 12.362556,12.261386 0 0 0 -6.68899,-8.317838 L 259.3498,16.168064 a 12.362556,12.261386 0 0 0 -5.99447,-1.198893 z"
         id="path3055" />
      <g
         id="g1669"
         transform="matrix(1.5453617,0,0,1.5453617,82.224092,-117.29297)">
        <g
           id="g1450"
           transform="matrix(0.95319914,0,0,0.95319914,34.566289,103.14055)">
          <g
             id="g1444">
            <path
               fill="#ffffff"
               d="M 85.7,71.3 C 85.8,69.5 85,66.7 84.2,64 83.7,62 81.8,60 81.3,58.5 80.4,56 80.8,54.2 80.7,50.7 c 0.4,3.2 0.4,6 1.2,7.3 0.7,1.3 1.9,3.1 2.6,4.9 1.3,3.3 2.1,6.9 2.2,8.6 0.1,2.9 -0.3,7.5 -1.3,11 -0.4,1.3 -0.9,2.5 -1.5,3.6 1.3,-1.9 2.2,-4 2.6,-5.7 1.3,-6.1 2.4,-12.6 1.5,-16.4 -0.2,-0.9 -0.5,-3.8 -1.7,-7.1 -1.8,-4.6 -4.2,-8.5 -4.5,-9.4 -0.9,-2.6 -1.2,-9.1 -1.3,-12.6 0.1,4.2 0.9,10.3 1.5,11.7 0.3,0.9 3,5.2 4.9,9.7 1.3,3 1.6,5.7 1.8,6.5 1,8.4 0.1,11.9 -2,19.4 -0.3,1.1 -0.8,2.1 -1.3,3.1 1.5,-1.8 2.6,-3.7 3,-5.3 2.2,-9.4 2.9,-21.4 -0.1,-30.5 -1.5,-4.8 -5.2,-9 -6.1,-11.9 -1,-3.4 -0.3,-8.9 -0.3,-9 L 73.8,25 c 2.1,5.4 2.5,9.6 0.3,11.4 -8.5,7 -22.7,14.9 -22.7,26.7 0,12.5 7.4,26 26.5,27 -2.3,-0.6 -4.5,-1.3 -6.4,-2.1 -1.9,-0.8 -3.6,-1.9 -4.9,-3.4 0,-0.1 -0.5,-0.5 -0.5,-0.5 -2.8,-3.2 -6.3,-8.6 -7.5,-13.7 -0.5,-2 -0.9,-3.6 -0.3,-5.7 2.3,-8.2 7.3,-11.5 12.3,-14.9 1.1,-0.7 2.5,-1.4 3.6,-2.3 2.1,-1.5 3.2,-6.3 4.4,-10.1 -0.6,3.1 -1.3,8.7 -4,10.8 -1.1,0.8 -2.3,1.6 -3.5,2.4 -4.8,3.3 -9.7,6.4 -11.9,14.3 -0.5,1.7 -0.1,3.5 0.3,5.2 1.2,4.9 4.6,10.1 7.3,13.2 0,0.1 0.5,0.5 0.5,0.6 1.8,2.1 2.6,3 7.3,4.3 -1.1,-0.6 -2,-1.3 -2.8,-1.8 C 67,83.1 64.6,79 64.2,72.9 c -0.3,-4.7 2.6,-9.7 8.3,-12.7 3.9,-2 5,-5.2 6.3,-9 -0.9,4.3 -1.8,7 -5.9,9.4 -4.8,2.8 -8.2,8.2 -7.9,11.9 0.4,4.5 3.6,9.7 7.1,12.8 1.5,1.3 3.8,2.1 6,2.7 -0.6,-0.5 -1.2,-1.1 -1.8,-1.9 -0.7,-1 -1.2,-2.4 -1.7,-3.7 -0.5,-1.3 -1,-2.6 -1,-3.8 0,-2.9 0.3,-6.5 2.4,-8.9 1.9,-2.2 2.5,-2.5 3.3,-5.1 -0.6,3 -1,3.2 -2.8,5.7 -2.3,3.2 -2.4,6.4 -2.1,8.4 0.2,1.3 0.7,2.5 1.1,3.5 0.5,1.3 1.1,2.5 1.9,3.6 0.7,0.8 1,1.4 2.1,1.8 1.1,-2 1.8,-6.2 1.9,-8.6 0.1,-2 0.2,-4.3 -0.1,-6.6 -0.4,-3.1 -1.4,-6.1 -1.4,-8.5 0.5,2.2 1.6,5.2 2.3,8.3 0.5,2.4 0.6,4.8 0.4,6.5 -0.2,2.1 -0.3,3.8 -0.6,5.6 -0.2,1.2 -0.8,2.4 -1.7,3.5 2.2,-1.7 3.6,-4.3 4.2,-7.4 1.1,-3.4 1.2,-7.1 1.2,-9.1 z"
               id="path1442" />
          </g>
          <g
             id="g1448">
            <path
               fill="#ffffff"
               d="M 106,53.4 C 102.9,47.7 95,42.1 86.7,36.9 c -1.9,-1.1 -2.3,-5.3 -2,-7.1 l -1.9,-0.9 c 0,0 -0.7,5 0.6,9 0.9,2.8 3.9,6 5.7,10.5 1.3,3 2.6,10.2 2.7,11 1,8.4 0.5,16.3 -2,23 -1.1,3.1 -3.5,5.9 -5.4,7.2 -0.3,0.2 -0.6,0.4 -0.9,0.6 15.8,0.5 33.2,-17.4 22.5,-36.8 z"
               id="path1446" />
          </g>
        </g>
        <g
           id="g1454"
           transform="matrix(0.95319914,0,0,0.95319914,34.566289,103.14055)">
          <path
             fill="#ffffff"
             d="M 102.7,4.3 C 96.2,6.5 90.4,9.9 86.1,16 88.7,10.7 92.8,5.4 97.4,0 91.1,4.5 85.7,9.6 82.2,16.4 l 2.4,-9.6 c -3.7,6.6 -6.2,13.4 -7,20.1 l 4.2,1.8 C 87.2,20.4 94.1,12.1 102.7,4.3 Z"
             id="path1452" />
        </g>
      </g>
    </g>
  </g>
</svg>
